<svg width="38" height="41" viewBox="0 0 38 41" fill="none" xmlns="http://www.w3.org/2000/svg">
<path d="M18.3881 9.6583C18.3881 9.6583 1.74334 18.8593 0 1.12146C0 1.12146 11.8852 -3.45827 18.3881 9.6583Z" fill="#369CB7"/>
<path d="M1.99231 2.21412C2.04766 2.21412 2.04766 2.1311 1.99231 2.1311C1.93697 2.1311 1.93697 2.21412 1.99231 2.21412Z" fill="#369CB7"/>
<path d="M2.35222 2.60225C4.89806 4.0412 7.55458 5.28644 10.1834 6.55936C11.484 7.18198 12.7846 7.8046 14.099 8.41339C14.7632 8.71778 15.4273 8.9945 16.0914 9.25739C16.714 9.50644 17.3643 9.88001 18.0561 9.67247C18.319 9.58945 18.3744 9.28506 18.2498 9.07752C17.8901 8.4964 17.143 8.34421 16.5342 8.12283C15.8562 7.87378 15.1782 7.62473 14.4864 7.37569C13.1167 6.89142 11.7469 6.40716 10.391 5.88139C7.69294 4.82985 5.06409 3.62612 2.40757 2.47773C2.32455 2.42238 2.26921 2.56074 2.35222 2.60225Z" fill="#369CB7"/>
<path d="M6.28144 1.31522C6.29528 2.00703 6.58584 2.68499 6.84872 3.32145C7.09777 3.95791 7.37449 4.69122 7.80341 5.21699C7.94177 5.38302 8.21849 5.2585 8.14931 5.03712C7.9141 4.35915 7.49902 3.73653 7.20846 3.08624C6.94557 2.47745 6.75187 1.82716 6.39213 1.25988C6.35062 1.23221 6.26761 1.25988 6.28144 1.31522Z" fill="#369CB7"/>
<path d="M3.59743 7.38984C4.37225 6.96092 5.17474 6.62886 6.0049 6.29679C6.66903 6.03391 7.55454 5.50814 8.30168 5.61883C8.68909 5.67417 8.79978 5.12073 8.41237 5.03771C7.60988 4.84401 6.62752 5.50814 5.93572 5.82637C5.11939 6.19994 4.05402 6.54584 3.48674 7.26532C3.41756 7.34833 3.51441 7.44518 3.59743 7.38984Z" fill="#369CB7"/>
<path d="M10.543 2.89309C10.626 3.58489 10.9304 4.27669 11.0964 4.95466C11.2901 5.7018 11.4285 6.46278 11.5945 7.22377C11.6499 7.50049 12.1479 7.40364 12.0926 7.11308C11.9681 6.36593 11.7605 5.61879 11.5115 4.89931C11.2901 4.23518 11.0272 3.41886 10.5845 2.86541C10.5845 2.85158 10.543 2.86541 10.543 2.89309Z" fill="#369CB7"/>
<path d="M7.25028 9.4084C8.02509 9.04866 8.7584 8.59207 9.53322 8.19082C10.3911 7.74807 11.2627 7.3745 12.1759 7.04243C12.5772 6.89024 12.3281 6.26761 11.9545 6.44748C10.308 7.2223 8.50936 8.05246 7.16726 9.28387C7.09808 9.32538 7.1811 9.43607 7.25028 9.4084Z" fill="#369CB7"/>
<path d="M17.5994 3.68108C18.2773 3.54272 19.0106 3.72259 19.5226 4.16534C18.7339 4.88481 18.7478 6.11622 18.7478 7.08475C18.7478 7.7212 19.8131 12.8267 18.9415 12.7852C17.4748 12.716 17.0736 3.79177 17.5994 3.68108Z" fill="#666720"/>
<path d="M33.594 35.5308C33.0959 35.9874 32.584 36.4163 32.0582 36.8176C31.7954 37.0251 31.5325 37.2188 31.2558 37.3987C28.9313 39.0452 25.9289 40.7747 23.051 39.5294C22.7881 39.4741 22.5252 39.4326 22.2623 39.3911C21.9994 39.3496 21.7366 39.3219 21.4598 39.3081C20.5328 39.2665 19.592 39.5018 18.7756 39.82C18.4159 39.9168 18.0562 39.9999 17.6964 40.069C16.2436 40.3596 14.7494 40.4426 13.3104 40.2351C12.9507 40.1797 12.5909 40.1244 12.245 40.0275C9.49166 39.1143 6.89048 37.4402 4.71822 35.4478C4.51068 35.2403 4.28931 35.0327 4.0956 34.8252C-0.0413738 30.5083 -0.331931 22.857 2.42144 17.793C2.83652 17.0182 3.27928 16.3264 3.76354 15.7314C4.98111 14.2095 6.4754 13.2133 8.73068 12.6183C10.9444 12.0372 13.2412 11.7605 15.5242 11.8158C17.8763 11.8712 19.6888 11.8989 21.8611 11.0825C23.5906 10.4322 25.4723 10.3631 27.2848 10.6536C30.5224 11.1794 33.3727 12.4661 35.1437 15.2057C36.4996 17.3087 37.399 19.7577 37.7864 22.2759C38.4782 27.077 37.2883 32.1271 33.594 35.5308Z" fill="#369CB7"/>
<path d="M33.594 35.5312C33.0959 35.9878 32.584 36.4167 32.0582 36.8179C31.7954 37.0255 31.5325 37.2192 31.2558 37.399C28.9313 39.0455 25.9289 40.775 23.051 39.5298C22.7881 39.4745 22.5252 39.433 22.2623 39.3914C21.9994 39.3499 21.7366 39.3223 21.4598 39.3084C20.5328 39.2669 19.592 39.5021 18.7756 39.8204C18.4159 39.9172 18.0562 40.0002 17.6964 40.0694C16.2436 40.36 14.7494 40.443 13.3104 40.2354C12.9507 40.1801 12.5909 40.1248 12.245 40.0279C9.49166 39.1147 6.89048 37.4406 4.71822 35.4482C4.51068 35.2406 4.28931 35.0331 4.0956 34.8255C-0.0413738 30.5087 -0.331931 22.8574 2.42144 17.7934C2.83652 17.0186 3.27928 16.3268 3.76354 15.7318C2.46295 18.0424 1.92334 20.8096 2.22774 23.4385C2.50446 25.7906 3.41764 28.0321 4.77357 29.9829C4.99495 30.315 5.24399 30.6194 5.49304 30.9376C8.3571 34.1061 12.2727 36.0846 16.4789 36.1261C16.8524 36.1538 17.2122 36.1676 17.5857 36.1815C18.1945 36.2092 18.8033 36.2092 19.4121 36.1953C20.0209 36.1815 20.6297 36.1538 21.2246 36.0985C25.071 35.8771 29.2219 35.2406 32.0721 32.3074C32.6255 31.8508 33.1375 31.3527 33.6217 30.8408C34.106 30.315 34.5626 29.7754 34.9776 29.1943C36.4581 27.1465 37.399 24.7391 37.7725 22.2624C38.4782 27.0774 37.2883 32.1275 33.594 35.5312Z" fill="#43B6D5"/>
<path d="M26.8281 16.7008C27.1049 16.9914 27.4093 17.2266 27.7136 17.3926C30.4532 18.9146 33.9675 15.1097 31.062 13.2695C30.0658 12.633 28.3778 11.9827 27.1602 12.3286C24.8358 13.0066 25.5276 15.3449 26.8281 16.7008Z" fill="#46C7E9"/>
<path d="M33.9123 16.6045C34.5072 16.7982 34.9776 17.407 34.4657 18.3755C34.4104 18.4724 34.3412 18.5692 34.2582 18.6384C34.1475 18.7076 34.0229 18.7353 33.8984 18.7491C33.3035 18.7906 32.7085 18.3479 32.5563 17.7667C32.3073 16.729 33.2066 16.3693 33.9123 16.6045Z" fill="#46C7E9"/>
</svg>
