<svg width="38" height="40" viewBox="0 0 38 40" fill="none" xmlns="http://www.w3.org/2000/svg">
<g clip-path="url(#clip0_584_670)">
<path d="M18.3881 9.31174C18.3881 9.31174 1.74334 18.5127 0 0.774901C0 0.774901 11.8852 -3.80483 18.3881 9.31174Z" fill="#619631"/>
<path d="M1.99231 1.86756C2.04766 1.86756 2.04766 1.78455 1.99231 1.78455C1.93697 1.78455 1.93697 1.86756 1.99231 1.86756Z" fill="#5D8C30"/>
<path d="M2.35222 2.25569C4.89806 3.69464 7.55458 4.93989 10.1834 6.2128C11.484 6.83542 12.7846 7.45805 14.099 8.06683C14.7632 8.37122 15.4273 8.64794 16.0914 8.91083C16.714 9.15988 17.3643 9.53345 18.0561 9.32591C18.319 9.24289 18.3744 8.9385 18.2498 8.73096C17.8901 8.14985 17.143 7.99765 16.5342 7.77627C15.8562 7.52723 15.1782 7.27818 14.4864 7.02913C13.1167 6.54487 11.7469 6.0606 10.391 5.53484C7.69294 4.4833 5.06409 3.27956 2.40757 2.13117C2.32455 2.07582 2.26921 2.21418 2.35222 2.25569Z" fill="#5D8C30"/>
<path d="M6.28144 0.968666C6.29528 1.66047 6.58584 2.33843 6.84872 2.97489C7.09777 3.61135 7.37449 4.34466 7.80341 4.87043C7.94177 5.03646 8.21849 4.91194 8.14931 4.69056C7.9141 4.0126 7.49902 3.38997 7.20846 2.73968C6.94557 2.13089 6.75187 1.4806 6.39213 0.913322C6.35062 0.88565 6.26761 0.913322 6.28144 0.968666Z" fill="#5D8C30"/>
<path d="M3.59743 7.04328C4.37225 6.61437 5.17474 6.2823 6.0049 5.95024C6.66903 5.68735 7.55454 5.16158 8.30168 5.27227C8.68909 5.32761 8.79978 4.77417 8.41237 4.69116C7.60988 4.49745 6.62752 5.16158 5.93572 5.47981C5.11939 5.85338 4.05402 6.19928 3.48674 6.91876C3.41756 7.00177 3.51441 7.09863 3.59743 7.04328Z" fill="#5D8C30"/>
<path d="M10.543 2.54653C10.626 3.23833 10.9304 3.93013 11.0964 4.6081C11.2901 5.35524 11.4285 6.11623 11.5945 6.87721C11.6499 7.15393 12.1479 7.05708 12.0926 6.76652C11.9681 6.01937 11.7605 5.27223 11.5115 4.55275C11.2901 3.88862 11.0272 3.0723 10.5845 2.51886C10.5845 2.50502 10.543 2.51886 10.543 2.54653Z" fill="#5D8C30"/>
<path d="M7.25028 9.06184C8.02509 8.7021 8.7584 8.24551 9.53322 7.84427C10.3911 7.40151 11.2627 7.02794 12.1759 6.69588C12.5772 6.54368 12.3281 5.92106 11.9545 6.10092C10.308 6.87574 8.50936 7.70591 7.16726 8.93732C7.09808 8.97882 7.1811 9.08951 7.25028 9.06184Z" fill="#5D8C30"/>
<path d="M17.5994 3.33452C18.2773 3.19616 19.0106 3.37603 19.5226 3.81878C18.7339 4.53826 18.7478 5.76966 18.7478 6.73819C18.7478 7.37465 19.8131 12.4801 18.9415 12.4386C17.4748 12.3695 17.0736 3.44521 17.5994 3.33452Z" fill="#666720"/>
<path d="M33.594 35.1843C33.0959 35.6408 32.584 36.0698 32.0582 36.471C31.7954 36.6785 31.5325 36.8722 31.2558 37.0521C28.9313 38.6986 25.9289 40.4281 23.051 39.1829C22.7881 39.1275 22.5252 39.086 22.2623 39.0445C21.9994 39.003 21.7366 38.9753 21.4598 38.9615C20.5328 38.92 19.592 39.1552 18.7756 39.4734C18.4159 39.5703 18.0562 39.6533 17.6964 39.7225C16.2436 40.013 14.7494 40.096 13.3104 39.8885C12.9507 39.8332 12.5909 39.7778 12.245 39.681C9.49166 38.7678 6.89048 37.0936 4.71822 35.1012C4.51068 34.8937 4.28931 34.6862 4.0956 34.4786C-0.0413738 30.1618 -0.331931 22.5104 2.42144 17.4464C2.83652 16.6716 3.27928 15.9798 3.76354 15.3849C4.98111 13.8629 6.4754 12.8667 8.73068 12.2718C10.9444 11.6907 13.2412 11.4139 15.5242 11.4693C17.8763 11.5246 19.6888 11.5523 21.8611 10.736C23.5906 10.0857 25.4723 10.0165 27.2848 10.3071C30.5224 10.8328 33.3727 12.1196 35.1437 14.8591C36.4996 16.9622 37.399 19.4112 37.7864 21.9293C38.4782 26.7304 37.2883 31.7806 33.594 35.1843Z" fill="#98C11F"/>
<path d="M33.594 35.1846C33.0959 35.6412 32.584 36.0701 32.0582 36.4714C31.7954 36.6789 31.5325 36.8726 31.2558 37.0525C28.9313 38.699 25.9289 40.4285 23.051 39.1832C22.7881 39.1279 22.5252 39.0864 22.2623 39.0449C21.9994 39.0034 21.7366 38.9757 21.4598 38.9619C20.5328 38.9204 19.592 39.1556 18.7756 39.4738C18.4159 39.5707 18.0562 39.6537 17.6964 39.7229C16.2436 40.0134 14.7494 40.0964 13.3104 39.8889C12.9507 39.8335 12.5909 39.7782 12.245 39.6813C9.49166 38.7682 6.89048 37.094 4.71822 35.1016C4.51068 34.8941 4.28931 34.6865 4.0956 34.479C-0.0413738 30.1621 -0.331931 22.5108 2.42144 17.4468C2.83652 16.672 3.27928 15.9802 3.76354 15.3853C2.46295 17.6959 1.92334 20.4631 2.22774 23.0919C2.50446 25.4441 3.41764 27.6855 4.77357 29.6364C4.99495 29.9684 5.24399 30.2728 5.49304 30.5911C8.3571 33.7595 12.2727 35.7381 16.4789 35.7796C16.8524 35.8073 17.2122 35.8211 17.5857 35.8349C18.1945 35.8626 18.8033 35.8626 19.4121 35.8488C20.0209 35.8349 20.6297 35.8073 21.2246 35.7519C25.071 35.5305 29.2219 34.8941 32.0721 31.9608C32.6255 31.5042 33.1375 31.0061 33.6217 30.4942C34.106 29.9684 34.5626 29.4288 34.9776 28.8477C36.4581 26.8 37.399 24.3925 37.7725 21.9159C38.4782 26.7308 37.2883 31.781 33.594 35.1846Z" fill="#8AAF26"/>
<path d="M26.8281 16.3543C27.1049 16.6448 27.4093 16.88 27.7136 17.0461C30.4532 18.568 33.9675 14.7631 31.062 12.9229C30.0658 12.2865 28.3778 11.6362 27.1602 11.9821C24.8358 12.66 25.5276 14.9983 26.8281 16.3543Z" fill="#BDD14C"/>
<path d="M33.9123 16.258C34.5072 16.4517 34.9776 17.0604 34.4657 18.029C34.4104 18.1258 34.3412 18.2227 34.2582 18.2919C34.1475 18.361 34.0229 18.3887 33.8984 18.4025C33.3035 18.4441 32.7085 18.0013 32.5563 17.4202C32.3073 16.3825 33.2066 16.0227 33.9123 16.258Z" fill="#BDD14C"/>
</g>
<defs>
<clipPath id="clip0_584_670">
<rect width="37.9523" height="40" fill="white"/>
</clipPath>
</defs>
</svg>
