<svg width="41" height="43" viewBox="0 0 41 43" fill="none" xmlns="http://www.w3.org/2000/svg">
<path d="M4.21412 37.1449C3.57035 37.3488 2.96949 37.6706 2.45447 38.0998C2.83 38.132 3.19481 38.1964 3.55962 38.2715C3.68837 38.3037 3.82786 38.3359 3.9137 38.4432C4.20339 38.8187 3.38794 39.323 3.61327 39.7415C3.6991 39.9131 3.92442 39.9561 4.10683 39.9346C4.28923 39.9024 4.46091 39.8166 4.64331 39.7629C4.72915 39.7415 4.81498 39.7307 4.89009 39.7629C5.05103 39.8273 5.09395 40.0419 5.06176 40.2136C5.0403 40.3852 4.97593 40.5676 5.02958 40.7286C5.10468 40.9646 5.38365 41.0827 5.64116 41.0505C5.89867 41.0183 6.10254 40.8681 6.3064 40.7286C6.51026 41.2651 6.71412 41.8015 6.91799 42.338C6.97163 42.4882 7.05747 42.6599 7.21842 42.6814C7.33644 42.7028 7.44374 42.6277 7.52957 42.5634C8.03387 42.1771 8.44159 41.6835 8.73129 41.1149C8.88151 40.8252 8.97807 40.4282 8.73129 40.2028L4.21412 37.1449Z" fill="#57852F"/>
<path d="M23.7743 38.0449C23.5919 38.238 23.3987 38.4312 23.2056 38.6243C21.4781 40.3088 19.4395 41.5642 17.2185 42.1651C16.9288 42.2402 16.6391 42.3153 16.3386 42.3689C16.2743 42.3797 16.2206 42.3904 16.1562 42.4011C15.8022 42.4655 15.4374 42.5084 15.0726 42.5299C13.0554 42.6694 11.0168 42.3582 9.11762 41.65C8.90302 41.5749 8.68843 41.4891 8.47384 41.3925C7.58328 41.017 6.73564 40.5449 5.93092 39.9977C5.21204 39.5041 4.52534 38.9355 3.91375 38.3024C3.72062 38.0985 3.52749 37.8947 3.35581 37.6801C3.23779 37.5406 3.10903 37.3904 3.00174 37.2402C2.85152 37.0363 2.70131 36.8324 2.56182 36.6286C1.87513 35.5985 1.37083 34.4505 1.12405 33.238C0.898732 32.1221 0.909461 30.9848 1.09186 29.8689C1.12405 29.6973 1.15624 29.5256 1.18843 29.3539C1.63907 27.208 2.71204 25.1479 3.99959 23.3561L4.06397 23.2702C4.1498 23.1629 4.22491 23.0449 4.31075 22.9376C5.76998 20.9955 7.54036 19.2681 9.53607 17.8839C9.68629 17.7874 9.82577 17.6801 9.97598 17.5835C10.6841 17.1221 11.4245 16.693 12.1756 16.3282C12.358 16.2423 12.5511 16.1458 12.7335 16.0599C14.5683 15.2337 16.521 14.708 18.5382 14.5578C18.6348 14.547 18.7421 14.547 18.8386 14.5363C18.9138 14.5363 18.9996 14.5256 19.0747 14.5256C19.2142 14.5148 19.3644 14.5148 19.5039 14.5148C22.5511 14.4827 24.7507 15.4054 26.564 17.8625C26.6927 18.0342 26.8215 18.2166 26.9395 18.399C26.9502 18.4097 26.9502 18.4204 26.961 18.4204C27.9588 19.9333 28.5489 21.65 28.785 23.4526C28.8172 23.6672 28.8386 23.8818 28.8601 24.0964C28.9138 24.7187 28.9245 25.341 28.903 25.9741C28.8386 27.723 28.4846 29.5041 27.8837 31.2209C27.8086 31.4247 27.7335 31.6393 27.6477 31.8432C27.5726 32.0363 27.4974 32.2294 27.4116 32.4118C26.521 34.4934 25.2871 36.4247 23.7743 38.0449Z" fill="#F6AA0A"/>
<path d="M24.9009 33.9573C23.946 35.0839 22.8301 36.1247 21.5962 36.9723C21.3494 37.144 21.1026 37.2942 20.8558 37.4551C20.3301 37.7663 19.7936 38.0453 19.2356 38.2813C18.9352 38.4101 18.6348 38.5174 18.3236 38.6247C17.2936 38.9573 16.2099 39.1397 15.1047 39.1075C13.667 39.0753 12.2614 38.6998 10.9524 38.0989C10.7485 38.0024 10.5447 37.9058 10.3515 37.7985C9.71847 37.4659 9.10689 37.0689 8.53822 36.6397C7.23993 35.6633 6.08113 34.4079 5.31933 32.9809C5.19057 32.7341 5.07255 32.4873 4.96525 32.2406C4.78285 31.8114 4.64336 31.3715 4.5468 30.9208C4.50388 30.7169 4.46096 30.5024 4.4395 30.2878C4.40731 30.041 4.38585 29.7835 4.38585 29.526C4.34293 27.423 5.25495 25.4702 6.52105 23.7534C6.60688 23.6247 6.70345 23.5066 6.80002 23.3886C7.17555 22.9058 7.57255 22.4444 7.98028 22.0045C8.92448 20.9852 9.96526 19.9981 11.0919 19.0753C11.3494 18.8607 11.6069 18.6569 11.8644 18.453C11.9395 18.3886 12.0253 18.335 12.1005 18.2706C12.2399 18.1633 12.3794 18.056 12.5189 17.9594C14.3859 16.586 16.4352 15.4058 18.549 14.5689C18.6455 14.5581 18.7528 14.5581 18.8494 14.5474C18.9245 14.5474 19.0103 14.5367 19.0854 14.5367C19.2249 14.526 19.3751 14.526 19.5146 14.526C22.5618 14.4938 24.7614 15.4165 26.5747 17.8736C26.7035 18.0453 26.8322 18.2277 26.9502 18.4101C26.961 18.4208 26.961 18.4315 26.9717 18.4315C27.9696 19.9444 28.5597 21.6612 28.7957 23.4637C28.8279 23.6783 28.8494 23.8929 28.8708 24.1075C28.9245 24.7298 28.9352 25.3521 28.9138 25.9852C28.5812 27.6697 27.9481 29.3006 27.1005 30.8242C26.9932 31.0174 26.8859 31.1998 26.7678 31.3929C26.2099 32.2942 25.5769 33.1526 24.9009 33.9573Z" fill="#FCCC09"/>
<path d="M28.8495 24.0973C28.5706 23.9471 28.3023 23.7969 28.0233 23.6574C27.2723 23.2711 26.5212 22.8956 25.7487 22.5415C25.577 22.4664 25.4053 22.3806 25.2444 22.3055C22.9375 21.2647 20.5555 20.3849 18.1306 19.666C17.9697 19.6123 17.8088 19.5694 17.6371 19.5265C17.3045 19.4299 16.9718 19.3441 16.6392 19.2475C15.1371 18.8505 13.6135 18.5179 12.0791 18.2497C12.0255 18.2389 11.9718 18.2282 11.9182 18.2175C11.7573 18.1853 11.5963 18.1638 11.4354 18.1316C11.1457 18.0887 10.856 18.0351 10.5555 17.9922C10.2122 17.9385 9.86885 17.8956 9.51477 17.8527C9.66499 17.7561 9.80447 17.6488 9.95468 17.5522C10.4697 17.6166 10.974 17.6917 11.4783 17.7668C11.5105 17.7668 11.5427 17.7776 11.5641 17.7776C11.7251 17.799 11.886 17.8312 12.047 17.8527C12.1972 17.8741 12.3474 17.8956 12.4869 17.9278C14.2573 18.2282 16.0169 18.6145 17.7551 19.0973C17.9161 19.1402 18.077 19.1831 18.2379 19.2368C19.9761 19.7304 21.6821 20.3098 23.3667 20.975C24.0427 21.2432 24.7186 21.5222 25.3839 21.8119C25.5555 21.887 25.7272 21.9621 25.8881 22.0372C26.8645 22.4771 27.8195 22.9492 28.7637 23.4428C28.8066 23.6681 28.8281 23.8827 28.8495 24.0973Z" fill="#F18A10"/>
<path d="M27.6368 31.8548C27.3471 31.7046 27.0467 31.5436 26.757 31.3934C25.5767 30.7818 24.375 30.2024 23.1733 29.6445C23.0445 29.5908 22.9265 29.5264 22.7978 29.4728C22.7334 29.4406 22.6797 29.4191 22.6154 29.387C20.3943 28.3784 18.1411 27.4556 15.8557 26.6187C15.6733 26.5543 15.4909 26.49 15.2978 26.4149C13.581 25.8033 11.8428 25.2346 10.0939 24.7303C9.84711 24.6552 9.60033 24.5908 9.35355 24.5157C9.17114 24.4621 8.97801 24.4084 8.79561 24.3548C8.04453 24.1402 7.272 23.9363 6.49947 23.7432C5.69475 23.55 4.87929 23.3784 4.06384 23.2496C4.14968 23.1423 4.22479 23.0243 4.31062 22.917C4.42865 22.9385 4.54668 22.9492 4.6647 22.9706C5.37286 23.0779 6.08101 23.2174 6.77844 23.3676C7.51878 23.5286 8.25912 23.711 8.98874 23.9148C9.17114 23.9685 9.36428 24.0114 9.54668 24.0651C9.99732 24.1938 10.4587 24.3118 10.9093 24.4406C12.4544 24.8805 13.978 25.3633 15.4909 25.8784C15.6733 25.9427 15.8557 26.0071 16.0488 26.0715C16.5317 26.2432 17.0145 26.4149 17.4973 26.5973C19.3106 27.2732 21.1025 28.0028 22.8621 28.7968C23.0445 28.8827 23.2269 28.9578 23.4094 29.0436C24.6433 29.6123 25.8772 30.2024 27.0896 30.814C27.3579 30.9428 27.6154 31.0822 27.8729 31.2217C27.7978 31.4363 27.7119 31.6402 27.6368 31.8548Z" fill="#F18A10"/>
<path d="M23.7742 38.0457C23.5918 38.2389 23.3986 38.432 23.2055 38.6251C22.4222 38.2281 21.6282 37.8419 20.8342 37.4556C20.5016 37.2947 20.1797 37.1444 19.8471 36.9835C19.654 36.8869 19.4501 36.8011 19.257 36.7045C17.154 35.7281 15.0295 34.8054 12.8729 33.947C12.669 33.8612 12.4651 33.7861 12.2613 33.7002C11.6282 33.4534 10.9952 33.2067 10.3514 32.9599C8.93511 32.4234 7.50807 31.9084 6.0703 31.4256C5.86644 31.3504 5.65185 31.2861 5.44798 31.2217C5.13682 31.1144 4.81493 31.0178 4.50378 30.9105C4.05313 30.7603 3.59176 30.6208 3.13039 30.4813C2.44369 30.2668 1.757 30.0629 1.05957 29.8698C1.09176 29.6981 1.12395 29.5264 1.15614 29.3547C2.11107 29.5908 3.04455 29.8805 3.95657 30.1487C4.09605 30.1916 4.24627 30.2346 4.38575 30.2775C4.82566 30.417 5.26558 30.5457 5.70549 30.6959C5.90936 30.7603 6.12395 30.8247 6.32781 30.8998C8.40936 31.5758 10.4802 32.3054 12.5188 33.0886C12.7227 33.1637 12.9265 33.2389 13.1304 33.3247C14.9973 34.0543 16.8536 34.8268 18.6883 35.653C18.978 35.7818 19.2677 35.9105 19.5574 36.05C19.7506 36.1359 19.9544 36.2324 20.1476 36.3183C20.6197 36.5328 21.081 36.7582 21.5531 36.9728C22.3257 37.3161 23.0553 37.6809 23.7742 38.0457Z" fill="#F18A10"/>
<path d="M16.1562 42.3913C15.8021 42.4557 15.4373 42.4986 15.0725 42.5201C13.345 41.7261 11.5961 40.9965 9.81495 40.3098C9.60036 40.2239 9.38577 40.1488 9.17118 40.063C8.48448 39.8055 7.78706 39.5587 7.10036 39.3226C6.04886 38.9578 4.98663 38.6145 3.9244 38.2926C3.73126 38.0887 3.53813 37.8849 3.36646 37.6703C3.37718 37.6703 3.38791 37.681 3.39864 37.681C5.42654 38.2497 7.44371 38.8935 9.42869 39.6123C9.64328 39.6875 9.85787 39.7733 10.0725 39.8484C12.1218 40.6209 14.1604 41.4686 16.1562 42.3913Z" fill="#F18A10"/>
<path d="M17.2291 42.1663C16.9394 42.2414 16.6497 42.3165 16.3492 42.3701C17.0145 41.1255 17.6797 39.8809 18.3235 38.6255C18.6454 37.9924 18.9673 37.3487 19.2784 36.7156C19.3857 36.4903 19.493 36.2757 19.6003 36.0504C20.6625 33.8615 21.6819 31.6405 22.6153 29.398C22.7012 29.2049 22.7763 29.0118 22.8514 28.8186C22.905 28.7006 22.948 28.5718 23.0016 28.4538C23.8278 26.4366 24.5681 24.398 25.2334 22.3272C25.287 22.1663 25.3407 22.0053 25.3943 21.8444C25.8128 20.5353 26.199 19.2156 26.5531 17.8851C26.6819 18.0568 26.8106 18.2392 26.9286 18.4216C26.6389 19.5482 26.3278 20.6641 25.9844 21.7693C25.9522 21.8658 25.9201 21.9731 25.8879 22.0697C25.8342 22.2306 25.7806 22.4023 25.7377 22.5632C25.0402 24.7628 24.257 26.9302 23.3986 29.0654C23.3235 29.2585 23.2377 29.4624 23.1625 29.6555C22.2398 31.9087 21.2419 34.1298 20.1904 36.3294C20.0831 36.5547 19.9759 36.78 19.8686 36.9946C19.8578 37.0268 19.8364 37.059 19.8256 37.0804C19.6325 37.4882 19.4286 37.8851 19.2355 38.2821C18.581 39.5804 17.905 40.8787 17.2291 42.1663Z" fill="#F18A10"/>
<path d="M9.11765 41.6402C8.90306 41.5651 8.68847 41.4792 8.47388 41.3827C8.70993 40.9428 8.94598 40.5136 9.1713 40.0737C9.24641 39.9234 9.33225 39.7732 9.40735 39.6123C9.71851 39.0007 10.0297 38.3891 10.3408 37.7775C11.0168 36.4256 11.6606 35.0629 12.2829 33.6895C12.3795 33.4857 12.4653 33.2818 12.5619 33.078C13.4631 31.0501 14.3108 29.0007 15.1048 26.9192C15.1692 26.7475 15.2335 26.5758 15.2979 26.4041C15.3623 26.2325 15.4267 26.0608 15.491 25.8784C16.2636 23.7754 16.9825 21.6616 17.637 19.5157C17.6799 19.3762 17.7228 19.2368 17.7657 19.0973C17.8086 18.9471 17.8623 18.7968 17.9052 18.6359C18.3129 17.2625 18.7099 15.8891 19.0747 14.505C19.2142 14.4943 19.3644 14.4943 19.5039 14.4943C19.461 14.6552 19.4181 14.8162 19.3859 14.9878C19.0425 16.4149 18.667 17.8204 18.2593 19.2368C18.2164 19.3762 18.1734 19.5157 18.1305 19.6659C18.1198 19.7089 18.1091 19.7518 18.0876 19.7947C17.4653 21.9084 16.7786 24.0007 16.0383 26.0715C15.9739 26.2432 15.9095 26.4256 15.8451 26.5973C15.0189 28.8612 14.1284 31.093 13.1627 33.3033C13.0769 33.5071 12.9803 33.7217 12.8837 33.9256C12.5297 34.7303 12.1541 35.535 11.7786 36.329C11.4996 36.9084 11.2207 37.4878 10.9417 38.0672C10.652 38.6574 10.3516 39.2475 10.0511 39.8376C9.97602 39.9878 9.89018 40.1488 9.81508 40.299C9.58976 40.7604 9.3537 41.2003 9.11765 41.6402Z" fill="#F18A10"/>
<path d="M3.00168 37.241C2.85147 37.0372 2.70125 36.8333 2.56177 36.6294C3.38795 35.1702 4.18194 33.711 4.95447 32.2303C5.12615 31.8977 5.29782 31.5651 5.48022 31.2217C5.56606 31.05 5.66263 30.8676 5.74847 30.696C6.62829 28.9685 7.47593 27.2303 8.29139 25.4706C8.46306 25.0951 8.63473 24.7303 8.80641 24.3548C8.87079 24.2153 8.93516 24.0651 8.99954 23.9256C9.71843 22.3161 10.4159 20.696 11.0811 19.0651C11.1025 19.0114 11.124 18.9685 11.1455 18.9149C11.2528 18.6573 11.3493 18.4106 11.4566 18.1531C11.4995 18.035 11.5532 17.917 11.5961 17.799C11.7892 17.3054 11.9931 16.8119 12.1862 16.3183C12.3686 16.2325 12.5618 16.1359 12.7442 16.05C12.7227 16.1037 12.7013 16.1681 12.6798 16.2217C12.4867 16.7689 12.2828 17.3161 12.0789 17.8634C12.036 17.9814 11.9931 18.0994 11.9395 18.2174C11.918 18.2818 11.8858 18.3569 11.8643 18.432C11.6605 18.9578 11.4566 19.4728 11.2528 19.9985C10.7056 21.3612 10.1476 22.7131 9.55748 24.0651C9.4931 24.2153 9.42873 24.3548 9.36435 24.505C8.42014 26.6509 7.42229 28.7861 6.38151 30.8891C6.29568 31.0715 6.19911 31.2432 6.11327 31.4256C5.85576 31.9406 5.58752 32.4556 5.33001 32.9706C5.31928 32.9814 5.31928 32.9921 5.30855 33.0136C4.54675 34.4299 3.78494 35.8462 3.00168 37.241Z" fill="#F18A10"/>
<path d="M31.3279 19.9348C29.9652 19.4305 29.1605 19.6772 27.8086 20.1172C26.4567 20.5678 25.5983 19.8596 24.3537 19.2481C23.227 18.6901 22.1863 18.2287 21.2421 17.3704C19.8043 16.0614 19.8794 15.0099 20.6412 13.4648C21.4137 11.8983 20.5017 10.1386 19.3429 8.97982C18.1627 7.78883 16.6069 7.03776 15.1047 6.28669C14.8472 6.15793 14.536 5.88969 14.6648 5.63218C14.7185 5.52489 14.8257 5.47124 14.933 5.41759C17.9373 3.94763 21.9073 4.82746 23.9888 7.44549C24.4288 6.40471 24.2249 5.16008 23.6455 4.18368C23.0661 3.20729 22.1434 2.47768 21.1562 1.91974C20.8987 1.78025 20.6305 1.63004 20.5017 1.3618C20.3515 1.02918 20.5232 0.610722 20.8021 0.3854C21.0918 0.160079 21.4674 0.0742416 21.8322 0.0313231C25.0082 -0.344213 28.2807 1.99484 28.9459 5.12789C30.2549 3.65793 32.4009 3.14291 34.3429 3.45407C36.285 3.76523 38.0339 4.81673 39.5575 6.05064C37.5189 6.22231 35.5554 7.1236 34.1069 8.5721C37.2828 9.4412 39.9438 12.0163 40.9309 15.1601C38.2914 14.6451 35.5446 14.6987 32.9266 15.2996C35.77 16.7266 37.4438 20.1601 36.8215 23.2717C35.2442 21.8124 33.3558 20.6751 31.3279 19.9348Z" fill="#90BF27"/>
<path d="M30.9415 12.0049C34.3428 11.3397 38.9136 12.0907 40.845 15.1379C40.8772 15.1487 40.9093 15.1487 40.9523 15.1594C39.9651 12.0156 37.3149 9.44051 34.1282 8.57142C34.2355 8.46412 31.8965 10.5886 30.9415 12.0049Z" fill="#57852F"/>
<path d="M27.5297 5.46051C27.7979 5.97553 27.7979 6.53347 27.6155 7.11287C28.0554 6.34034 28.2915 5.90043 28.9889 5.10643C28.0769 1.70515 24.9331 -0.32275 21.8537 0.0420565C21.4889 0.0849749 21.1133 0.170812 20.8237 0.396134C20.7593 0.449782 20.7056 0.50343 20.652 0.567808C23.5704 0.79313 26.2099 2.87467 27.5297 5.46051Z" fill="#57852F"/>
<path d="M22.7979 8.35726C23.0232 8.60404 23.1734 8.94739 23.3236 9.29074C23.3558 9.46241 23.3773 9.62336 23.3451 9.7843C23.6884 8.95812 23.6348 8.77572 24.0103 7.42378C21.8859 4.9667 17.873 3.96885 14.9545 5.40662C14.9438 5.41735 14.9331 5.41735 14.9116 5.42808C17.755 5.09546 20.609 6.57615 22.7979 8.35726Z" fill="#57852F"/>
<path d="M32.9482 15.299C31.5319 15.3955 30.5018 16.8118 29.2572 17.4234C33.152 16.2002 35.298 20.2239 36.7465 23.1852C36.7787 23.2067 36.8001 23.2389 36.8323 23.2603C37.4653 20.1595 35.7915 16.726 32.9482 15.299Z" fill="#57852F"/>
<path d="M19.9009 14.6887C19.6434 15.5686 19.9331 16.3304 20.4588 17.0385C21.0168 17.7896 21.6498 18.4763 22.3258 19.1201C23.7314 20.4398 25.4803 21.3196 27.4116 21.5235C28.2485 21.6093 28.7743 20.3432 28.1198 19.8175C26.8751 18.8196 25.6305 17.8111 24.3644 16.8454C23.506 16.1909 22.6477 15.5256 21.7571 14.9141C21.4674 14.7209 21.1777 14.5278 20.8773 14.3561C20.7915 14.3025 20.7056 14.2595 20.6091 14.2059C20.4267 14.0986 20.1477 13.8625 20.6412 14.2488C19.9331 13.6909 18.9245 14.6887 19.6434 15.2467C19.3751 15.0321 19.6219 15.2252 19.7078 15.3218C19.7721 15.3862 19.8365 15.4613 19.9009 15.5256C20.137 15.7724 20.3837 16.0085 20.6198 16.2445C21.3923 16.9849 22.2507 17.6501 23.0769 18.3368C24.2678 19.3239 25.491 20.2681 26.7142 21.2231C26.9503 20.6544 27.1863 20.0857 27.4224 19.5171C25.9739 19.3776 24.74 18.6158 23.5597 17.8111C22.9481 17.3926 22.3902 16.899 21.8215 16.4162C21.285 15.9656 20.5339 15.3862 20.373 14.6887C20.3194 14.4419 19.9653 14.4634 19.9009 14.6887Z" fill="#57852F"/>
</svg>
